<mxfile host="app.diagrams.net" agent="Mozilla/5.0 (Windows NT 10.0; Win64; x64) AppleWebKit/537.36 (KHTML, like Gecko) Chrome/131.0.0.0 Safari/537.36" version="25.0.3">
  <diagram name="PÃ¡gina-1" id="YmNj2d9JGakV336upGtF">
    <mxGraphModel dx="1195" dy="650" grid="1" gridSize="10" guides="1" tooltips="1" connect="1" arrows="1" fold="1" page="1" pageScale="1" pageWidth="1169" pageHeight="827" math="0" shadow="0">
      <root>
        <mxCell id="0" />
        <mxCell id="1" parent="0" />
        <mxCell id="4XttECREZ4Risisxcreo-4" style="edgeStyle=orthogonalEdgeStyle;rounded=0;orthogonalLoop=1;jettySize=auto;html=1;" edge="1" parent="1" source="4XttECREZ4Risisxcreo-1" target="4XttECREZ4Risisxcreo-3">
          <mxGeometry relative="1" as="geometry" />
        </mxCell>
        <mxCell id="4XttECREZ4Risisxcreo-1" value="INICIO" style="strokeWidth=2;html=1;shape=mxgraph.flowchart.start_1;whiteSpace=wrap;" vertex="1" parent="1">
          <mxGeometry x="535" y="30" width="100" height="60" as="geometry" />
        </mxCell>
        <mxCell id="4XttECREZ4Risisxcreo-2" value="FIM" style="strokeWidth=2;html=1;shape=mxgraph.flowchart.start_1;whiteSpace=wrap;" vertex="1" parent="1">
          <mxGeometry x="535" y="640" width="100" height="60" as="geometry" />
        </mxCell>
        <mxCell id="4XttECREZ4Risisxcreo-12" style="edgeStyle=orthogonalEdgeStyle;rounded=0;orthogonalLoop=1;jettySize=auto;html=1;" edge="1" parent="1" source="4XttECREZ4Risisxcreo-3" target="4XttECREZ4Risisxcreo-11">
          <mxGeometry relative="1" as="geometry" />
        </mxCell>
        <mxCell id="4XttECREZ4Risisxcreo-3" value="NOME" style="shape=parallelogram;html=1;strokeWidth=2;perimeter=parallelogramPerimeter;whiteSpace=wrap;rounded=1;arcSize=12;size=0.23;" vertex="1" parent="1">
          <mxGeometry x="535" y="120" width="100" height="40" as="geometry" />
        </mxCell>
        <mxCell id="4XttECREZ4Risisxcreo-15" style="edgeStyle=orthogonalEdgeStyle;rounded=0;orthogonalLoop=1;jettySize=auto;html=1;" edge="1" parent="1" source="4XttECREZ4Risisxcreo-9" target="4XttECREZ4Risisxcreo-10">
          <mxGeometry relative="1" as="geometry" />
        </mxCell>
        <mxCell id="4XttECREZ4Risisxcreo-17" value="V" style="edgeLabel;html=1;align=center;verticalAlign=middle;resizable=0;points=[];" vertex="1" connectable="0" parent="4XttECREZ4Risisxcreo-15">
          <mxGeometry x="-0.2643" y="-1" relative="1" as="geometry">
            <mxPoint as="offset" />
          </mxGeometry>
        </mxCell>
        <mxCell id="4XttECREZ4Risisxcreo-24" style="edgeStyle=orthogonalEdgeStyle;rounded=0;orthogonalLoop=1;jettySize=auto;html=1;entryX=1;entryY=0.5;entryDx=0;entryDy=0;" edge="1" parent="1" source="4XttECREZ4Risisxcreo-9" target="4XttECREZ4Risisxcreo-23">
          <mxGeometry relative="1" as="geometry">
            <Array as="points">
              <mxPoint x="760" y="285" />
              <mxPoint x="760" y="520" />
            </Array>
          </mxGeometry>
        </mxCell>
        <mxCell id="4XttECREZ4Risisxcreo-25" value="F" style="edgeLabel;html=1;align=center;verticalAlign=middle;resizable=0;points=[];" vertex="1" connectable="0" parent="4XttECREZ4Risisxcreo-24">
          <mxGeometry x="-0.8376" y="-2" relative="1" as="geometry">
            <mxPoint y="-2" as="offset" />
          </mxGeometry>
        </mxCell>
        <mxCell id="4XttECREZ4Risisxcreo-9" value="CONTADOR=1;&amp;nbsp; &amp;lt;= 4, +1" style="rounded=1;whiteSpace=wrap;html=1;absoluteArcSize=1;arcSize=14;strokeWidth=2;" vertex="1" parent="1">
          <mxGeometry x="480" y="266" width="210" height="30" as="geometry" />
        </mxCell>
        <mxCell id="4XttECREZ4Risisxcreo-16" style="edgeStyle=orthogonalEdgeStyle;rounded=0;orthogonalLoop=1;jettySize=auto;html=1;" edge="1" parent="1" source="4XttECREZ4Risisxcreo-10" target="4XttECREZ4Risisxcreo-14">
          <mxGeometry relative="1" as="geometry" />
        </mxCell>
        <mxCell id="4XttECREZ4Risisxcreo-10" value="NOTA" style="shape=parallelogram;html=1;strokeWidth=2;perimeter=parallelogramPerimeter;whiteSpace=wrap;rounded=1;arcSize=12;size=0.23;" vertex="1" parent="1">
          <mxGeometry x="535" y="340" width="100" height="40" as="geometry" />
        </mxCell>
        <mxCell id="4XttECREZ4Risisxcreo-13" style="edgeStyle=orthogonalEdgeStyle;rounded=0;orthogonalLoop=1;jettySize=auto;html=1;" edge="1" parent="1" source="4XttECREZ4Risisxcreo-11" target="4XttECREZ4Risisxcreo-9">
          <mxGeometry relative="1" as="geometry" />
        </mxCell>
        <mxCell id="4XttECREZ4Risisxcreo-11" value="MEDIA = 0" style="rounded=1;whiteSpace=wrap;html=1;absoluteArcSize=1;arcSize=14;strokeWidth=2;" vertex="1" parent="1">
          <mxGeometry x="520" y="190" width="130" height="40" as="geometry" />
        </mxCell>
        <mxCell id="4XttECREZ4Risisxcreo-19" style="edgeStyle=orthogonalEdgeStyle;rounded=0;orthogonalLoop=1;jettySize=auto;html=1;" edge="1" parent="1" source="4XttECREZ4Risisxcreo-14" target="4XttECREZ4Risisxcreo-9">
          <mxGeometry relative="1" as="geometry">
            <mxPoint x="420" y="260" as="targetPoint" />
            <Array as="points">
              <mxPoint x="410" y="455" />
              <mxPoint x="410" y="285" />
            </Array>
          </mxGeometry>
        </mxCell>
        <mxCell id="4XttECREZ4Risisxcreo-29" style="edgeStyle=orthogonalEdgeStyle;rounded=0;orthogonalLoop=1;jettySize=auto;html=1;entryX=0.5;entryY=0;entryDx=0;entryDy=0;" edge="1" parent="1" source="4XttECREZ4Risisxcreo-14" target="4XttECREZ4Risisxcreo-23">
          <mxGeometry relative="1" as="geometry" />
        </mxCell>
        <mxCell id="4XttECREZ4Risisxcreo-14" value="MEDIA = MEDIA + NOTA" style="rounded=1;whiteSpace=wrap;html=1;absoluteArcSize=1;arcSize=14;strokeWidth=2;" vertex="1" parent="1">
          <mxGeometry x="495" y="420" width="180" height="40" as="geometry" />
        </mxCell>
        <mxCell id="4XttECREZ4Risisxcreo-27" style="edgeStyle=orthogonalEdgeStyle;rounded=0;orthogonalLoop=1;jettySize=auto;html=1;" edge="1" parent="1" source="4XttECREZ4Risisxcreo-23" target="4XttECREZ4Risisxcreo-26">
          <mxGeometry relative="1" as="geometry" />
        </mxCell>
        <mxCell id="4XttECREZ4Risisxcreo-23" value="MEDIA = MEDIA / 4" style="rounded=1;whiteSpace=wrap;html=1;absoluteArcSize=1;arcSize=14;strokeWidth=2;" vertex="1" parent="1">
          <mxGeometry x="495" y="500" width="180" height="40" as="geometry" />
        </mxCell>
        <mxCell id="4XttECREZ4Risisxcreo-28" style="edgeStyle=orthogonalEdgeStyle;rounded=0;orthogonalLoop=1;jettySize=auto;html=1;" edge="1" parent="1" source="4XttECREZ4Risisxcreo-26" target="4XttECREZ4Risisxcreo-2">
          <mxGeometry relative="1" as="geometry" />
        </mxCell>
        <mxCell id="4XttECREZ4Risisxcreo-26" value="NOME&lt;div&gt;MEDIA&lt;/div&gt;" style="strokeWidth=2;html=1;shape=mxgraph.flowchart.display;whiteSpace=wrap;" vertex="1" parent="1">
          <mxGeometry x="535" y="560" width="100" height="50" as="geometry" />
        </mxCell>
      </root>
    </mxGraphModel>
  </diagram>
</mxfile>
